<svg width="191" height="35" viewBox="0 0 191 35" fill="none" xmlns="http://www.w3.org/2000/svg">
<path d="M54.8136 13.0533H68.517V6.0246H57.074H54.8136L41.2515 13.0533L27.4068 6.0246V12.684V18.38V24.076L20.6257 19.9385L13.5621 24.0631V18.0831V12.0979V6.06608H12.5468L6.28876 6.11795H0V13.0533H6.63979V27.2242V33.7721L20.6257 26.8238L34.6481 33.7721V33.5464V27.2372V15.8425L41.2515 19.8491L48.0325 15.8425V33.8525L54.8136 30.7119V26.9415V13.0533Z" fill="white"/>
<path d="M75.7754 13.4262V15.3174H92.3212V13.4262H75.7754ZM76.7519 6.35738V8.23017H91.3086V6.35738H76.7519ZM79.392 20.2748V22.1659H88.795V20.2748H79.392ZM78.2166 16.3823V22.8453H80.3504V18.2551H87.909V22.8269H90.1332V16.3823H78.2166ZM81.2545 7.11017C80.8928 9.33181 80.2419 12.1777 79.7175 13.9954H82.0321C82.5022 12.2328 83.0809 9.40525 83.4968 7.11017H81.2545ZM77.7283 9.73574V11.5351H87.7824V9.73574H77.7283ZM86.9325 9.73574V14.3993H89.0844V9.73574H86.9325ZM109.518 10.4151V12.1226H115.431V10.4151H109.518ZM108.686 18.6407V20.3666H116.534V18.6407H108.686ZM109.626 7.31214V9.20328H116.625V7.31214H109.626ZM107.384 14.3993V16.0702H116.932V14.3993H107.384ZM114.238 10.4151V10.8007C114.093 17.6859 113.894 20.2564 113.478 20.7889C113.297 21.0275 113.135 21.0826 112.827 21.0643C112.447 21.0643 111.67 21.0643 110.802 20.9908C111.073 21.4498 111.272 22.1475 111.308 22.6433C112.194 22.6616 113.098 22.68 113.659 22.5882C114.274 22.5148 114.708 22.3312 115.106 21.7803C115.666 20.9908 115.865 18.5305 116.046 11.278C116.064 11.0393 116.064 10.4151 116.064 10.4151H114.238ZM109.482 5.62296C108.885 7.5141 107.872 9.47869 106.769 10.7456C107.221 11.021 108.017 11.5902 108.379 11.9023C109.482 10.5069 110.639 8.24853 111.362 6.11869L109.482 5.62296ZM110.928 13.0223C111.489 13.5364 112.212 14.2708 112.556 14.7298L113.822 13.7384C113.442 13.2977 112.701 12.6184 112.14 12.141L110.928 13.0223ZM110.621 16.9698C111.218 17.5574 111.977 18.3653 112.357 18.861L113.587 17.8328C113.207 17.3554 112.411 16.6026 111.814 16.0518L110.621 16.9698ZM109.03 10.4151C108.795 13.5915 108.27 17.8144 107.8 20.3666H109.699C110.097 17.8879 110.567 13.6833 110.874 10.4151H109.03ZM100.422 9.79082V22.6616H101.887V11.5718H105.413V22.4046H106.95V9.79082H100.422ZM101.001 19.8892V21.7436H106.191V19.8892H101.001ZM100.133 6.37574V8.08328H107.24V6.37574H100.133ZM101.905 6.92656V11.4066H103.406V6.92656H101.905ZM103.93 6.94492V11.4066H105.449V6.94492H103.93ZM102.357 11.3882V13.2243C102.357 14.0689 102.285 15.042 101.598 15.8315C101.833 15.96 102.249 16.3272 102.429 16.5292C103.243 15.6295 103.406 14.2708 103.406 13.261V11.3882H102.357ZM103.894 11.3882V14.2525C103.894 15.3174 104.129 15.5744 104.925 15.5744C105.07 15.5744 105.377 15.5744 105.522 15.5744C106.1 15.5744 106.408 15.3541 106.534 14.84C106.209 14.7666 105.793 14.6013 105.594 14.4361C105.558 14.4728 105.522 14.4912 105.341 14.4912C105.269 14.4912 105.106 14.4912 105.052 14.4912C104.925 14.4912 104.907 14.4728 104.907 14.2157V11.3882H103.894ZM102.267 17.0433V18.7875H104.979V17.0433H102.267ZM125.847 11.3331V13.4997H139.933V11.3331H125.847ZM124.653 19.9443V22.1108H141.127V19.9443H124.653ZM131.669 5.67804V21.4131H134.002V5.67804H131.669ZM151.995 8.96459V11.1128H164.58V8.96459H151.995ZM151.253 14.381V16.4925H163.893V14.381H151.253ZM149.156 20.2013V22.3495H165.502V20.2013H149.156ZM156.19 5.64132V21.2662H158.45V5.64132H156.19ZM152.013 5.86164C151.362 8.39541 150.204 10.9292 148.776 12.4715C149.336 12.7836 150.295 13.4262 150.729 13.8118C152.139 12.0492 153.459 9.22164 154.255 6.37574L152.013 5.86164ZM175.99 7.34886V22.8636H178.106V7.34886H175.99ZM173.242 10.8007V12.8571H180.493V10.8007H173.242ZM176.117 11.6269C175.538 13.6649 174.273 16.3272 173.007 17.7961C173.35 18.3469 173.821 19.2649 174.019 19.9075C175.412 18.0898 176.696 14.8216 177.383 12.1961L176.117 11.6269ZM179.227 5.80656C177.726 6.43082 175.448 7 173.387 7.31214C173.604 7.78951 173.875 8.52394 173.965 9.01968C176.081 8.76263 178.558 8.30361 180.439 7.60591L179.227 5.80656ZM178.052 12.9489L177.112 13.8302C177.654 14.6197 178.775 16.4741 179.191 17.4105L180.457 15.6846C180.095 15.2256 178.504 13.3895 178.052 12.9489ZM186.008 5.62296V22.8636H188.142V5.62296H186.008ZM180.186 17.4656L180.511 19.5771L190.276 17.8328L189.95 15.758L180.186 17.4656ZM181.361 7.99148C182.356 8.79935 183.549 9.97443 184.055 10.7639L185.574 9.38689C185.014 8.59738 183.766 7.49574 182.772 6.74296L181.361 7.99148ZM180.692 12.8203C181.741 13.6282 183.007 14.84 183.585 15.6479L185.068 14.2341C184.453 13.4262 183.115 12.3062 182.066 11.5534L180.692 12.8203Z" fill="white"/>
<path d="M78.5032 32.9918H79.2491L79.9882 29.9485C80.0696 29.5561 80.1577 29.1911 80.2391 28.7987H80.2662C80.3408 29.1911 80.4222 29.5561 80.5104 29.9485L81.2563 32.9918H82.0157L83.0465 27.9449H82.443L81.914 30.699C81.8259 31.2361 81.7309 31.78 81.636 32.3308H81.6021C81.48 31.78 81.3648 31.2361 81.2427 30.699L80.551 27.9449H79.9814L79.2965 30.699C79.1745 31.2361 79.0524 31.78 78.9371 32.3308H78.91C78.8083 31.78 78.7134 31.2361 78.6117 30.699L78.0895 27.9449H77.4453L78.5032 32.9918ZM86.823 33.0882C87.8401 33.0882 88.6132 32.5305 88.6132 30.9125V27.9449H88.0096V30.9331C88.0096 32.1449 87.4807 32.5236 86.823 32.5236C86.172 32.5236 85.6634 32.1449 85.6634 30.9331V27.9449H85.0395V30.9125C85.0395 32.5305 85.8126 33.0882 86.823 33.0882ZM91.0998 32.9918H91.6694V30.2033C91.6694 29.7626 91.622 29.1567 91.5881 28.7092H91.6152L92.0085 29.859L92.9511 32.4892H93.3715L94.3141 29.859L94.7074 28.7092H94.7413C94.7074 29.1567 94.6599 29.7626 94.6599 30.2033V32.9918H95.2431V27.9449H94.4836L93.541 30.6508C93.4257 30.9951 93.3172 31.3462 93.1952 31.7043H93.1681C93.046 31.3462 92.9307 30.9951 92.8087 30.6508L91.8525 27.9449H91.0998V32.9918ZM97.098 32.9918H97.7354L98.6101 30.1689C98.7932 29.6043 98.9492 29.0534 99.1119 28.4682H99.1391C99.3018 29.0534 99.4578 29.6043 99.6341 30.1689L100.509 32.9918H101.167L99.4849 27.9449H98.7797L97.098 32.9918ZM97.9795 31.4495H100.272V30.9469H97.9795V31.4495ZM103.034 32.9918H103.665V27.9449H103.034V32.9918ZM107.204 32.9918H107.842V28.482H109.34V27.9449H105.706V28.482H107.204V32.9918ZM113.025 33.0882C114.272 33.0882 115.14 32.0692 115.14 30.4511C115.14 28.84 114.272 27.8554 113.025 27.8554C111.77 27.8554 110.902 28.8331 110.902 30.4511C110.902 32.0692 111.77 33.0882 113.025 33.0882ZM113.025 32.5236C112.13 32.5236 111.546 31.7111 111.546 30.4511C111.546 29.1911 112.13 28.4131 113.025 28.4131C113.913 28.4131 114.503 29.1911 114.503 30.4511C114.503 31.7111 113.913 32.5236 113.025 32.5236ZM120.042 32.9918H121.628C122.734 32.9918 123.507 32.5029 123.507 31.5184C123.507 30.8298 123.093 30.4236 122.496 30.3066V30.279C122.964 30.1207 123.222 29.68 123.222 29.1843C123.222 28.2961 122.524 27.9449 121.513 27.9449H120.042V32.9918ZM120.672 30.0931V28.4475H121.439C122.212 28.4475 122.605 28.6679 122.605 29.26C122.605 29.7764 122.259 30.0931 121.405 30.0931H120.672ZM120.672 32.4892V30.582H121.54C122.408 30.582 122.897 30.8711 122.897 31.4977C122.897 32.1793 122.388 32.4892 121.54 32.4892H120.672ZM125.651 32.9918H126.282V27.9449H125.651V32.9918ZM130.628 33.0882C131.876 33.0882 132.744 32.0692 132.744 30.4511C132.744 28.84 131.876 27.8554 130.628 27.8554C129.374 27.8554 128.506 28.8331 128.506 30.4511C128.506 32.0692 129.374 33.0882 130.628 33.0882ZM130.628 32.5236C129.733 32.5236 129.15 31.7111 129.15 30.4511C129.15 29.1911 129.733 28.4131 130.628 28.4131C131.517 28.4131 132.107 29.1911 132.107 30.4511C132.107 31.7111 131.517 32.5236 130.628 32.5236ZM135.808 32.9918H136.446V28.482H137.944V27.9449H134.31V28.482H135.808V32.9918ZM139.99 32.9918H142.926V32.4548H140.621V30.6095H142.499V30.0656H140.621V28.482H142.852V27.9449H139.99V32.9918ZM147.014 33.0882C147.658 33.0882 148.14 32.8266 148.533 32.3584L148.194 31.959C147.875 32.317 147.509 32.5236 147.041 32.5236C146.092 32.5236 145.495 31.7318 145.495 30.458C145.495 29.198 146.119 28.4131 147.061 28.4131C147.482 28.4131 147.814 28.6059 148.072 28.8882L148.418 28.4751C148.126 28.1515 147.658 27.8554 147.055 27.8554C145.793 27.8554 144.851 28.8469 144.851 30.4718C144.851 32.1105 145.773 33.0882 147.014 33.0882ZM150.613 32.9918H151.243V30.6164H153.562V32.9918H154.186V27.9449H153.562V30.0587H151.243V27.9449H150.613V32.9918ZM156.699 32.9918H157.296V30.3479C157.296 29.8108 157.248 29.2807 157.214 28.7711H157.248L157.784 29.8108L159.588 32.9918H160.239V27.9449H159.635V30.5682C159.635 31.0915 159.683 31.6629 159.723 32.1725H159.689L159.154 31.1259L157.343 27.9449H156.699V32.9918ZM164.59 33.0882C165.838 33.0882 166.706 32.0692 166.706 30.4511C166.706 28.84 165.838 27.8554 164.59 27.8554C163.335 27.8554 162.467 28.8331 162.467 30.4511C162.467 32.0692 163.335 33.0882 164.59 33.0882ZM164.59 32.5236C163.695 32.5236 163.112 31.7111 163.112 30.4511C163.112 29.1911 163.695 28.4131 164.59 28.4131C165.478 28.4131 166.068 29.1911 166.068 30.4511C166.068 31.7111 165.478 32.5236 164.59 32.5236ZM168.938 32.9918H171.738V32.4548H169.568V27.9449H168.938V32.9918ZM175.398 33.0882C176.646 33.0882 177.514 32.0692 177.514 30.4511C177.514 28.84 176.646 27.8554 175.398 27.8554C174.144 27.8554 173.276 28.8331 173.276 30.4511C173.276 32.0692 174.144 33.0882 175.398 33.0882ZM175.398 32.5236C174.503 32.5236 173.92 31.7111 173.92 30.4511C173.92 29.1911 174.503 28.4131 175.398 28.4131C176.287 28.4131 176.877 29.1911 176.877 30.4511C176.877 31.7111 176.287 32.5236 175.398 32.5236ZM181.699 33.0882C182.37 33.0882 182.913 32.8403 183.238 32.5029V30.3823H181.604V30.9125H182.655V32.2344C182.465 32.4134 182.12 32.5236 181.76 32.5236C180.695 32.5236 180.106 31.7318 180.106 30.458C180.106 29.198 180.75 28.4131 181.753 28.4131C182.255 28.4131 182.574 28.6266 182.825 28.8882L183.171 28.4751C182.879 28.1721 182.425 27.8554 181.74 27.8554C180.424 27.8554 179.461 28.8469 179.461 30.4718C179.461 32.1105 180.397 33.0882 181.699 33.0882ZM186.381 32.9918H187.005V31.0364L188.497 27.9449H187.853L187.208 29.377C187.052 29.7489 186.883 30.1 186.707 30.4787H186.68C186.51 30.1 186.361 29.7489 186.191 29.377L185.554 27.9449H184.883L186.381 31.0364V32.9918Z" fill="white"/>
</svg>
